<?xml version="1.0" encoding="utf-8"?>
<!-- Generator: Adobe Illustrator 16.0.0, SVG Export Plug-In . SVG Version: 6.00 Build 0)  -->
<!DOCTYPE svg PUBLIC "-//W3C//DTD SVG 1.1//EN" "http://www.w3.org/Graphics/SVG/1.1/DTD/svg11.dtd">
<svg version="1.1" id="Layer_1" xmlns="http://www.w3.org/2000/svg" xmlns:xlink="http://www.w3.org/1999/xlink" x="0px" y="0px"
	 width="561.102px" height="251.082px" viewBox="0 0 561.102 251.082" enable-background="new 0 0 561.102 251.082"
	 xml:space="preserve">
<g>
	<path d="M21.978,89.91c-5.552,2.445-10.604,6.441-15.151,11.988C2.274,107.45,0,115.333,0,125.541v44.289v40.626
		c0.442,7.773,2.331,14.542,5.661,20.313c2.882,5.109,7.211,9.771,12.987,13.985c5.771,4.22,14.319,6.327,25.641,6.327h29.637
		v-10.988H44.289v-29.638V169.83v-44.289V95.904h29.637V84.915H44.289C35.85,85.362,28.414,87.027,21.978,89.91z"/>
	<polygon points="125.541,210.456 125.541,169.83 125.541,125.541 125.541,84.915 125.541,44.289 125.541,0 96.237,0 84.915,0 
		62.937,0 62.937,10.989 84.915,10.989 84.915,44.289 84.915,84.915 84.915,125.541 84.915,169.83 84.915,210.456 84.915,251.082 
		114.552,251.082 125.541,251.082 147.852,251.082 147.852,240.094 125.541,240.094 	"/>
	<polygon points="243.754,103.23 232.432,103.23 232.432,166.167 169.828,166.167 169.828,177.156 232.432,177.156 232.432,240.094 
		243.754,240.094 243.754,177.156 306.358,177.156 306.358,166.167 243.754,166.167 	"/>
	<path d="M539.125,240.094v-29.638V169.83v-44.289c0-10.208-2.165-18.091-6.493-23.643c-4.329-5.546-9.049-9.542-14.153-11.988
		c-5.993-2.883-12.768-4.548-20.312-4.995h-32.967v10.989h32.967v29.637v44.289v40.626v40.626h40.959h21.978v-10.988H539.125z"/>
	<polygon points="328.335,84.915 328.335,95.904 350.313,95.904 350.313,125.541 350.313,169.83 350.313,210.456 350.313,240.094 
		328.335,240.094 328.335,251.082 361.635,251.082 391.272,251.082 391.272,210.456 391.272,169.83 391.272,125.541 391.272,84.915 
		350.313,84.915 	"/>
	<path d="M465.199,210.456V169.83v-44.289c0-10.208-2.165-18.091-6.494-23.643c-4.329-5.546-9.048-9.542-14.152-11.988
		c-5.994-2.883-12.769-4.548-20.312-4.995h-21.979v10.989h21.979v29.637v44.289v40.626v40.626h29.637h33.3v-10.988h-21.978V210.456z
		"/>
</g>
</svg>
